<svg width="50" height="51" viewBox="0 0 50 51" fill="none" xmlns="http://www.w3.org/2000/svg">
<g clip-path="url(#clip0)">
<path d="M26.0417 20.2917C23.4375 17.6875 21.875 11.9583 20.8333 8.83334C19.7917 5.70834 20.8333 2.58334 25 3.62501C29.1667 4.66667 34.8958 6.22917 36.4583 7.79167L41.8271 13.1604C41.8999 13.2335 41.9928 13.2832 42.094 13.3034C42.1951 13.3236 42.3 13.3132 42.3953 13.2737C42.4906 13.2342 42.572 13.1673 42.6292 13.0815C42.6864 12.9957 42.7169 12.8948 42.7167 12.7917V5.70834C42.7167 5.02367 42.5817 4.34572 42.3194 3.71327C42.0571 3.08082 41.6728 2.50629 41.1882 2.02254C40.7037 1.5388 40.1286 1.15533 39.4957 0.894073C38.8628 0.63282 38.1847 0.498911 37.5 0.500007H12.5C11.1187 0.500007 9.79391 1.04874 8.81716 2.02549C7.84041 3.00224 7.29167 4.327 7.29167 5.70834V38C7.29167 38.684 7.42639 39.3613 7.68813 39.9932C7.94988 40.6251 8.33352 41.1992 8.81716 41.6829C9.3008 42.1665 9.87496 42.5501 10.5069 42.8119C11.1388 43.0736 11.816 43.2083 12.5 43.2083H28.5188C28.6569 43.2083 28.7895 43.263 28.8875 43.3604L34.6792 49.1542C34.7761 49.2509 34.8911 49.3275 35.0176 49.3797C35.1442 49.4319 35.2798 49.4586 35.4167 49.4583C35.5533 49.4589 35.6886 49.432 35.8146 49.3792C36.0051 49.3004 36.1679 49.167 36.2825 48.9956C36.3971 48.8243 36.4583 48.6228 36.4583 48.4167V43.7292C36.4583 43.591 36.5132 43.4586 36.6109 43.3609C36.7086 43.2632 36.841 43.2083 36.9792 43.2083H37.5375C38.2215 43.2083 38.8987 43.0736 39.5306 42.8119C40.1626 42.5501 40.7367 42.1665 41.2204 41.6829C41.704 41.1992 42.0876 40.6251 42.3494 39.9932C42.6111 39.3613 42.7458 38.684 42.7458 38V37.2167C42.7451 37.0793 42.6905 36.9476 42.5938 36.85L26.0417 20.2917ZM27.1271 30.7083C27.5415 30.7083 27.9389 30.873 28.2319 31.166C28.525 31.459 28.6896 31.8564 28.6896 32.2708C28.6896 32.6852 28.525 33.0827 28.2319 33.3757C27.9389 33.6687 27.5415 33.8333 27.1271 33.8333H14.5833C14.1689 33.8333 13.7715 33.6687 13.4785 33.3757C13.1855 33.0827 13.0208 32.6852 13.0208 32.2708C13.0208 31.8564 13.1855 31.459 13.4785 31.166C13.7715 30.873 14.1689 30.7083 14.5833 30.7083H27.1271ZM20.8771 21.8542C21.2915 21.8542 21.6889 22.0188 21.9819 22.3118C22.275 22.6048 22.4396 23.0023 22.4396 23.4167C22.4396 23.8311 22.275 24.2285 21.9819 24.5215C21.6889 24.8146 21.2915 24.9792 20.8771 24.9792H14.5833C14.1689 24.9792 13.7715 24.8146 13.4785 24.5215C13.1855 24.2285 13.0208 23.8311 13.0208 23.4167C13.0208 23.0023 13.1855 22.6048 13.4785 22.3118C13.7715 22.0188 14.1689 21.8542 14.5833 21.8542H20.8771Z" fill="#D73728"/>
<path d="M22.9167 46.3334H6.25C5.69747 46.3334 5.16756 46.1139 4.77686 45.7232C4.38616 45.3325 4.16667 44.8026 4.16667 44.25V10.9167C4.16667 10.3642 3.94717 9.83427 3.55647 9.44357C3.16577 9.05287 2.63587 8.83337 2.08333 8.83337C1.5308 8.83337 1.0009 9.05287 0.610194 9.44357C0.219493 9.83427 0 10.3642 0 10.9167L0 44.25C0 45.9076 0.65848 47.4974 1.83058 48.6695C3.00268 49.8416 4.5924 50.5 6.25 50.5H22.9167C23.4692 50.5 23.9991 50.2805 24.3898 49.8898C24.7805 49.4991 25 48.9692 25 48.4167C25 47.8642 24.7805 47.3343 24.3898 46.9436C23.9991 46.5529 23.4692 46.3334 22.9167 46.3334Z" fill="#94ADBE"/>
<path d="M31.4354 8.33328C31.3897 8.15773 31.299 7.99715 31.1722 7.86743C31.0454 7.73772 30.8869 7.64336 30.7125 7.5937L24.2542 5.74786C24.0756 5.69691 23.8866 5.69462 23.7069 5.74124C23.5271 5.78785 23.3631 5.88167 23.2318 6.01298C23.1005 6.14429 23.0066 6.30832 22.96 6.48808C22.9134 6.66784 22.9157 6.85679 22.9667 7.03536L24.8125 13.4937C24.8625 13.6678 24.957 13.8258 25.0867 13.9522C25.2164 14.0786 25.3768 14.169 25.5521 14.2145C25.637 14.2377 25.7245 14.2496 25.8125 14.2499C25.9495 14.2499 26.0852 14.2228 26.2118 14.1703C26.3383 14.1177 26.4532 14.0407 26.55 13.9437L31.1646 9.32911C31.2923 9.20095 31.3845 9.04171 31.432 8.86709C31.4795 8.69247 31.4806 8.50849 31.4354 8.33328Z" fill="#94ADBE"/>
<path d="M45.3646 21.8979C45.5599 21.7026 45.6696 21.4377 45.6696 21.1614C45.6696 20.8852 45.5599 20.6203 45.3646 20.425L34.925 9.98748C34.7297 9.7922 34.4648 9.6825 34.1886 9.6825C33.9123 9.6825 33.6474 9.7922 33.4521 9.98748L27.2021 16.2375C27.0068 16.4328 26.8971 16.6977 26.8971 16.9739C26.8971 17.2502 27.0068 17.5151 27.2021 17.7104L37.6417 28.1479C37.837 28.3432 38.1019 28.4529 38.3781 28.4529C38.6543 28.4529 38.9193 28.3432 39.1146 28.1479L45.3646 21.8979Z" fill="#94ADBE"/>
<path d="M48.3063 23.3689C48.1426 23.207 47.93 23.1039 47.7016 23.0756C47.4732 23.0474 47.2419 23.0955 47.0437 23.2126C46.9675 23.2567 46.8975 23.3106 46.8354 23.373L40.5854 29.623C40.4033 29.8497 40.3124 30.1362 40.3305 30.4264C40.3487 30.7166 40.4745 30.9895 40.6833 31.1918C41.189 31.7011 41.7909 32.1048 42.454 32.3795C43.1171 32.6541 43.8281 32.7943 44.5458 32.7918C44.6688 32.7918 44.7937 32.7918 44.9167 32.7772C46.2342 32.6917 47.4752 32.1279 48.4063 31.1918C48.9175 30.6738 49.3208 30.0595 49.5928 29.3845C49.8648 28.7095 50 27.9871 49.9907 27.2594C49.9814 26.5317 49.8277 25.8131 49.5386 25.1453C49.2494 24.4774 48.8306 23.8736 48.3063 23.3689Z" fill="#94ADBE"/>
</g>
<defs>
<clipPath id="clip0">
<rect width="50" height="50" fill="white" transform="translate(0 0.5)"/>
</clipPath>
</defs>
</svg>
