<svg viewBox="0 0 258 177" xmlns="http://www.w3.org/2000/svg"><g fill="#f0f3f5"><path d="m199.75 2.15c-32.94 0-58.95 26.71-58.95 59.65s27 59.65 60 59.65h1.16a75.55 75.55 0 0 1 -47.3 16.55 14.88 14.88 0 0 0 -14.87 14.91c0 8.23 5.3 14.92 13.54 14.92 58.47 0 104.67-47.58 104.67-106 0-32.99-25.32-59.68-58.25-59.68z"/><path d="m60 2.15c-32.9 0-59 26.71-59 59.65s27 59.65 60 59.65h1.15a75.6 75.6 0 0 1 -47.28 16.55 14.88 14.88 0 0 0 -14.87 14.93c0 8.23 5.38 14.92 13.62 14.92 58.47 0 104.75-47.58 104.75-106 0-33.01-25.37-59.7-58.37-59.7z"/></g></svg>