<svg width="50" height="51" viewBox="0 0 50 51" fill="none" xmlns="http://www.w3.org/2000/svg">
<g clip-path="url(#clip0)">
<path d="M20.8958 29.2062C21.5645 27.87 22.5115 26.6923 23.6732 25.7525C24.8349 24.8126 26.1843 24.1323 27.6307 23.7574C29.0771 23.3824 30.5871 23.3214 32.0591 23.5785C33.531 23.8356 34.9309 24.4048 36.1646 25.2479C36.2508 25.3068 36.3528 25.3384 36.4573 25.3384C36.5617 25.3384 36.6638 25.3068 36.75 25.2479C38.9261 23.762 41.5845 23.156 44.1896 23.5521C44.2638 23.5639 44.3398 23.5594 44.4121 23.5389C44.4845 23.5184 44.5515 23.4824 44.6086 23.4335C44.6656 23.3846 44.7114 23.3238 44.7426 23.2554C44.7739 23.187 44.7899 23.1127 44.7896 23.0375V3.625C44.7896 2.79656 44.4606 2.00202 43.875 1.41603C43.2894 0.830036 42.4951 0.500552 41.6667 0.5L3.125 0.5C2.2962 0.5 1.50134 0.82924 0.915291 1.41529C0.32924 2.00134 0 2.7962 0 3.625L0 28.7354C0.00316573 29.1398 0.0869774 29.5394 0.246527 29.911C0.406076 30.2825 0.638156 30.6185 0.929176 30.8992C1.22019 31.18 1.5643 31.3998 1.94135 31.5459C2.3184 31.692 2.7208 31.7614 3.125 31.75H6.25V39.0417C6.24995 39.2425 6.30793 39.439 6.41696 39.6076C6.526 39.7762 6.68144 39.9097 6.86458 39.992C7.04772 40.0744 7.25076 40.102 7.44924 40.0716C7.64772 40.0412 7.83319 39.9542 7.98333 39.8208L17.0625 31.75H19.6229C19.7398 31.7504 19.8534 31.7113 19.9453 31.6391C20.0371 31.5669 20.1019 31.4657 20.1292 31.3521C20.3031 30.6102 20.5603 29.8904 20.8958 29.2062Z" fill="#D73728"/>
<path d="M43.8313 26.6376C42.6823 26.4439 41.5036 26.5297 40.3947 26.8876C39.2859 27.2455 38.2794 27.865 37.4604 28.6938L36.4583 29.698L35.4542 28.6938C34.6312 27.8712 33.6245 27.2558 32.5171 26.8984C31.4097 26.541 30.2333 26.4519 29.0846 26.6382C27.936 26.8246 26.8481 27.2811 25.9105 27.9703C24.9729 28.6595 24.2124 29.5615 23.6917 30.6021C23.0021 31.9775 22.7624 33.5348 23.0066 35.0539C23.2507 36.5729 23.9663 37.9767 25.0521 39.0667L35.7042 50.1792C35.8014 50.281 35.9183 50.362 36.0478 50.4174C36.1772 50.4727 36.3165 50.5013 36.4573 50.5013C36.5981 50.5013 36.7374 50.4727 36.8668 50.4174C36.9963 50.362 37.1132 50.281 37.2104 50.1792L47.8479 39.0813C48.9384 37.9914 49.6581 36.5858 49.9049 35.0638C50.1517 33.5419 49.9131 31.9809 49.2229 30.6021C48.7079 29.5575 47.9492 28.652 47.0108 27.962C46.0725 27.272 44.982 26.8178 43.8313 26.6376Z" fill="#94ADBE"/>
</g>
<defs>
<clipPath id="clip0">
<rect width="50" height="50" fill="white" transform="translate(0 0.5)"/>
</clipPath>
</defs>
</svg>
