<svg width="16" height="16" viewBox="0 0 16 16" fill="none" xmlns="http://www.w3.org/2000/svg">
<path d="M8 0C3.5816 0 0 3.5816 0 8C0 12.4184 3.5816 16 8 16C12.4184 16 16 12.4184 16 8C16 3.5816 12.4184 0 8 0ZM8.8 12.8H7.2V11.2H8.8V12.8ZM8.8 9.488V10.4H7.2V8.8C7.2 8.58783 7.28429 8.38434 7.43431 8.23431C7.58434 8.08429 7.78783 8 8 8C8.8824 8 9.6 7.2824 9.6 6.4C9.6 5.5176 8.8824 4.8 8 4.8C7.1176 4.8 6.4 5.5176 6.4 6.4H4.8C4.8 4.632 6.232 3.2 8 3.2C9.768 3.2 11.2 4.632 11.2 6.4C11.1987 7.10789 10.9622 7.79529 10.5278 8.35422C10.0934 8.91315 9.48565 9.31196 8.8 9.488Z" fill="white"/>
</svg>
