<svg width="57" height="56" viewBox="0 0 57 56" fill="none" xmlns="http://www.w3.org/2000/svg">
<g clip-path="url(#clip0)">
<path d="M4 0C3.07174 0 2.1815 0.368749 1.52513 1.02513C0.868749 1.6815 0.5 2.57174 0.5 3.5L0.5 52.5C0.5 53.4283 0.868749 54.3185 1.52513 54.9749C2.1815 55.6312 3.07174 56 4 56C4.92826 56 5.8185 55.6312 6.47487 54.9749C7.13125 54.3185 7.5 53.4283 7.5 52.5V3.5C7.5 2.57174 7.13125 1.6815 6.47487 1.02513C5.8185 0.368749 4.92826 0 4 0V0Z" fill="#94ADBE"/>
<path d="M55.058 5.07267C54.5084 4.69869 53.8682 4.47966 53.2047 4.4386C52.5412 4.39754 51.8789 4.53597 51.2873 4.83934C48.2234 6.0846 44.9651 6.7835 41.66 6.90434C37.8897 6.62691 34.1717 5.85899 30.6 4.62001C22.767 2.33334 20.0533 1.79201 14.0473 2.56667C13.2036 2.67672 12.4288 3.09038 11.868 3.73026C11.3071 4.37015 10.9985 5.19244 11 6.04334V41.09C11 41.5835 11.1044 42.0714 11.3063 42.5217C11.5082 42.9719 11.803 43.3745 12.1714 43.7028C12.5398 44.0311 12.9735 44.2778 13.444 44.4267C13.9145 44.5755 14.4111 44.6233 14.9013 44.5667C20.163 43.9623 22.613 44.4757 29.9327 46.6177C33.7185 47.9296 37.6624 48.7308 41.66 49C45.7438 48.8485 49.7636 47.9369 53.5133 46.312C55.0813 45.7147 56.5 44.912 56.5 42.7467V7.93334C56.5047 7.37616 56.3763 6.8259 56.1255 6.32834C55.8747 5.83078 55.5087 5.40029 55.058 5.07267ZM34.3333 36.1667C32.2566 36.1667 30.2266 35.5509 28.4999 34.3971C26.7731 33.2434 25.4273 31.6035 24.6326 29.6849C23.8379 27.7662 23.6299 25.655 24.0351 23.6182C24.4402 21.5814 25.4403 19.7105 26.9087 18.2421C28.3772 16.7736 30.2481 15.7736 32.2849 15.3684C34.3217 14.9633 36.4329 15.1712 38.3515 15.9659C40.2701 16.7607 41.91 18.1065 43.0638 19.8332C44.2175 21.5599 44.8333 23.59 44.8333 25.6667C44.8333 27.0456 44.5617 28.4109 44.0341 29.6849C43.5064 30.9588 42.733 32.1163 41.758 33.0913C40.7829 34.0663 39.6254 34.8397 38.3515 35.3674C37.0776 35.8951 35.7122 36.1667 34.3333 36.1667Z" fill="#D73728"/>
<path d="M37.2615 22.029L32.8282 27.9393L31.2765 26.3877C30.9448 26.0785 30.506 25.9102 30.0526 25.9182C29.5993 25.9262 29.1667 26.1099 28.8461 26.4305C28.5254 26.7512 28.3418 27.1837 28.3338 27.6371C28.3258 28.0905 28.4941 28.5292 28.8032 28.861L30.7048 30.765C31.0148 31.0766 31.3883 31.3178 31.7997 31.4723C32.2112 31.6268 32.6511 31.691 33.0896 31.6604C33.5281 31.6299 33.9548 31.5054 34.3409 31.2953C34.727 31.0852 35.0634 30.7945 35.3272 30.443L40.0615 24.143C40.3121 23.7703 40.41 23.3156 40.335 22.8728C40.2601 22.43 40.0179 22.0329 39.6587 21.7634C39.2994 21.494 38.8504 21.3727 38.4043 21.4248C37.9582 21.4768 37.5491 21.6981 37.2615 22.043V22.029Z" fill="#D73728"/>
</g>
<defs>
<clipPath id="clip0">
<rect width="56" height="56" fill="white" transform="translate(0.5)"/>
</clipPath>
</defs>
</svg>
