<svg width="18" height="16" viewBox="0 0 18 16" fill="none" xmlns="http://www.w3.org/2000/svg">
<path d="M12.6364 14.5909V13.1364C12.6364 11.5297 11.3339 10.2273 9.72727 10.2273H3.90909C2.30244 10.2273 1 11.5297 1 13.1364V14.5909M17 14.5909V13.1364C16.999 11.8106 16.1018 10.6533 14.8182 10.3218M11.9091 1.59455C13.1963 1.92412 14.0966 3.08399 14.0966 4.41273C14.0966 5.74146 13.1963 6.90133 11.9091 7.23091M6.81818 7.31818C8.42483 7.31818 9.72727 6.01574 9.72727 4.40909C9.72727 2.80244 8.42483 1.5 6.81818 1.5C5.21154 1.5 3.90909 2.80244 3.90909 4.40909C3.90909 6.01574 5.21154 7.31818 6.81818 7.31818Z" stroke="#131415" stroke-width="1.5" stroke-linecap="round" stroke-linejoin="round"/>
</svg>
