<svg width="50" height="51" viewBox="0 0 50 51" fill="none" xmlns="http://www.w3.org/2000/svg">
<g clip-path="url(#clip0)">
<path d="M30.4375 25.9875C28.4426 25.433 26.5892 24.459 25.0012 23.1304C23.4132 21.8018 22.1273 20.1494 21.2294 18.2837C20.3316 16.4181 19.8426 14.3821 19.7951 12.3122C19.7476 10.2423 20.1428 8.1861 20.9542 6.28122C21.0175 6.13303 21.0455 5.97218 21.0361 5.81131C21.0267 5.65045 20.9801 5.49395 20.9 5.35414C20.1336 3.96291 19.2899 2.61566 18.3729 1.31872C18.1592 1.07695 17.8966 0.883342 17.6025 0.750739C17.3083 0.618135 16.9893 0.549561 16.6667 0.549561C16.344 0.549561 16.025 0.618135 15.7309 0.750739C15.4367 0.883342 15.1741 1.07695 14.9604 1.31872C11.8854 5.34997 0 28.2083 0 34.875C0 43.0521 7.94375 50.5 16.6667 50.5C25.3896 50.5 33.3333 43.0521 33.3333 34.875C33.0262 32.0264 32.2836 29.2419 31.1313 26.6187C31.073 26.4666 30.9799 26.3302 30.8594 26.2206C30.739 26.111 30.5944 26.0311 30.4375 25.9875ZM16.1063 44.3646C16.061 44.5653 15.9766 44.7551 15.8577 44.923C15.7388 45.091 15.5879 45.2338 15.4136 45.3432C15.2394 45.4526 15.0452 45.5264 14.8423 45.5605C14.6393 45.5946 14.4317 45.5882 14.2313 45.5416C12.6507 45.1819 11.1703 44.4743 9.89774 43.4702C8.62519 42.4661 7.59255 41.191 6.875 39.7375C6.7818 39.5536 6.72591 39.353 6.71056 39.1474C6.69522 38.9418 6.72072 38.7352 6.78559 38.5395C6.85046 38.3438 6.95343 38.1629 7.08855 38.0071C7.22367 37.8514 7.38827 37.724 7.57288 37.6321C7.75748 37.5403 7.95843 37.4859 8.16415 37.4721C8.36986 37.4583 8.57628 37.4854 8.77149 37.5517C8.9667 37.6181 9.14686 37.7224 9.30157 37.8587C9.45628 37.995 9.58249 38.1605 9.67292 38.3458C10.1862 39.3859 10.9256 40.2982 11.8368 41.0159C12.748 41.7335 13.8081 42.2384 14.9396 42.4937C15.3419 42.5879 15.6905 42.8377 15.9092 43.1883C16.1278 43.5389 16.1987 43.9618 16.1063 44.3646Z" fill="#D73728"/>
<path d="M49.2333 23.6667L44.2583 18.6667C44.0999 18.508 43.997 18.3026 43.9647 18.0807C43.9324 17.8589 43.9726 17.6326 44.0791 17.4354C44.9769 15.7714 45.4452 13.9096 45.4416 12.0188C45.4416 9.74016 44.766 7.51272 43.5 5.61813C42.2341 3.72354 40.4348 2.24689 38.3296 1.3749C36.2245 0.502917 33.908 0.274766 31.6732 0.7193C29.4384 1.16383 27.3856 2.26109 25.7743 3.8723C24.1631 5.48352 23.0659 7.53634 22.6213 9.77116C22.1768 12.006 22.405 14.3224 23.2769 16.4276C24.1489 18.5328 25.6256 20.3321 27.5202 21.598C29.4148 22.8639 31.6422 23.5396 33.9208 23.5396C35.8116 23.5428 37.6733 23.0745 39.3375 22.1771C39.5344 22.071 39.7603 22.0312 39.9817 22.0634C40.2031 22.0957 40.4082 22.1984 40.5666 22.3563L45.5666 27.3313C45.8053 27.5754 46.0903 27.7693 46.405 27.9017C46.7196 28.0342 47.0575 28.1024 47.3989 28.1024C47.7403 28.1024 48.0782 28.0342 48.3929 27.9017C48.7075 27.7693 48.9926 27.5754 49.2312 27.3313C49.4739 27.0919 49.6667 26.8067 49.7983 26.4922C49.9299 26.1778 49.9978 25.8403 49.998 25.4994C49.9982 25.1585 49.9307 24.821 49.7994 24.5064C49.6682 24.1917 49.4757 23.9063 49.2333 23.6667ZM33.9208 19.375C32.4663 19.375 31.0444 18.9437 29.835 18.1356C28.6257 17.3275 27.6831 16.179 27.1264 14.8352C26.5698 13.4914 26.4242 12.0127 26.7079 10.5861C26.9917 9.15955 27.6921 7.84916 28.7206 6.82067C29.7491 5.79217 31.0595 5.09175 32.4861 4.80799C33.9126 4.52423 35.3913 4.66986 36.7351 5.22648C38.0789 5.7831 39.2275 6.7257 40.0356 7.93509C40.8437 9.14448 41.275 10.5663 41.275 12.0208C41.2711 13.9701 40.4951 15.8384 39.1167 17.2168C37.7384 18.5951 35.8701 19.3712 33.9208 19.375Z" fill="#94ADBE"/>
</g>
<defs>
<clipPath id="clip0">
<rect width="50" height="50" fill="white" transform="translate(0 0.5)"/>
</clipPath>
</defs>
</svg>
