<svg width="50" height="51" viewBox="0 0 50 51" fill="none" xmlns="http://www.w3.org/2000/svg">
<g clip-path="url(#clip0)">
<path d="M22.9167 12.2833C22.9167 10.017 22.2447 7.80169 20.9856 5.91738C19.7265 4.03307 17.937 2.56442 15.8433 1.69717C13.7495 0.829916 11.4456 0.603003 9.22293 1.04513C7.00023 1.48725 4.95855 2.57855 3.35607 4.18102C1.7536 5.7835 0.662296 7.82518 0.220174 10.0479C-0.221949 12.2706 0.00496476 14.5745 0.872219 16.6682C1.73947 18.7619 3.20812 20.5515 5.09243 21.8105C6.97674 23.0696 9.19209 23.7416 11.4583 23.7416C14.4961 23.7378 17.4083 22.5293 19.5563 20.3813C21.7044 18.2333 22.9128 15.321 22.9167 12.2833ZM11.4583 19.575C10.0162 19.575 8.60641 19.1473 7.40731 18.3461C6.2082 17.5449 5.27361 16.4061 4.72172 15.0737C4.16983 13.7413 4.02543 12.2752 4.30678 10.8608C4.58813 9.44631 5.28259 8.14706 6.30235 7.1273C7.32211 6.10755 8.62136 5.41308 10.0358 5.13173C11.4503 4.85038 12.9164 4.99478 14.2487 5.54667C15.5811 6.09856 16.7199 7.03315 17.5211 8.23226C18.3224 9.43137 18.75 10.8411 18.75 12.2833C18.75 14.2172 17.9818 16.0718 16.6143 17.4393C15.2469 18.8067 13.3922 19.575 11.4583 19.575Z" fill="#D73728"/>
<path d="M13.0208 11.6354V9.53955C13.0208 9.33436 12.9804 9.13118 12.9019 8.94161C12.8234 8.75204 12.7083 8.57979 12.5632 8.4347C12.4181 8.2896 12.2458 8.17451 12.0563 8.09599C11.8667 8.01747 11.6635 7.97705 11.4583 7.97705C11.2531 7.97705 11.05 8.01747 10.8604 8.09599C10.6708 8.17451 10.4986 8.2896 10.3535 8.4347C10.2084 8.57979 10.0933 8.75204 10.0148 8.94161C9.93624 9.13118 9.89583 9.33436 9.89583 9.53955V12.2833C9.89567 12.4885 9.93608 12.6917 10.0147 12.8812C10.0934 13.0706 10.2088 13.2427 10.3542 13.3875L11.9167 14.95C12.0597 15.1035 12.2322 15.2266 12.4239 15.312C12.6155 15.3974 12.8224 15.4433 13.0322 15.447C13.242 15.4507 13.4504 15.4121 13.645 15.3336C13.8395 15.255 14.0163 15.138 14.1647 14.9896C14.313 14.8413 14.43 14.6645 14.5086 14.47C14.5872 14.2754 14.6258 14.067 14.6221 13.8572C14.6184 13.6474 14.5724 13.4405 14.487 13.2488C14.4016 13.0572 14.2785 12.8847 14.125 12.7416L13.0208 11.6354Z" fill="#D73728"/>
<path d="M33.1583 30.3854C33.2716 30.4249 33.395 30.4249 33.5083 30.3854L40.6979 27.8166C40.7811 27.787 40.8553 27.7366 40.9137 27.6704C40.9721 27.6041 41.0126 27.5241 41.0316 27.4379C41.0506 27.3516 41.0473 27.262 41.0221 27.1774C40.9969 27.0928 40.9506 27.0159 40.8875 26.9541C39.1556 25.2347 36.8155 24.2675 34.375 24.2625H32.2917C29.8498 24.2678 27.5087 25.2366 25.7771 26.9583C25.7141 27.0202 25.6678 27.0972 25.6428 27.1819C25.6177 27.2667 25.6146 27.3564 25.6338 27.4427C25.653 27.5289 25.6938 27.6089 25.7524 27.6751C25.811 27.7412 25.8854 27.7914 25.9687 27.8208L33.1583 30.3854Z" fill="#94ADBE"/>
<path d="M44.7917 43.0126C43.9629 43.0126 43.168 42.6834 42.582 42.0973C41.9959 41.5113 41.6667 40.7164 41.6667 39.8876V35.7209C41.6667 34.8921 41.9959 34.0973 42.582 33.5112C43.168 32.9252 43.9629 32.5959 44.7917 32.5959H46.875C47.0354 32.5959 47.1917 32.5959 47.3479 32.6168C47.4201 32.6238 47.493 32.6155 47.5618 32.5926C47.6307 32.5697 47.6939 32.5326 47.7475 32.4837C47.8011 32.4348 47.8439 32.3752 47.873 32.3088C47.9021 32.2424 47.917 32.1706 47.9167 32.098V28.8647C47.9162 28.6988 47.8762 28.5354 47.7998 28.3881C47.7234 28.2408 47.613 28.1138 47.4777 28.0179C47.3424 27.9219 47.1861 27.8596 47.0218 27.8362C46.8575 27.8128 46.6901 27.829 46.5333 27.8834C46.4563 27.9397 33.6833 32.5355 33.6833 32.5355C33.457 32.6163 33.2097 32.6163 32.9833 32.5355L20.1417 27.8834C19.9845 27.8274 19.8161 27.8099 19.6507 27.8325C19.4853 27.855 19.3278 27.917 19.1914 28.0132C19.055 28.1094 18.9437 28.2369 18.8669 28.3851C18.7901 28.5333 18.75 28.6978 18.75 28.8647V32.098C18.7504 32.1704 18.7656 32.2419 18.7946 32.3081C18.8236 32.3744 18.8659 32.4341 18.9188 32.4834C18.9725 32.5322 19.0359 32.5693 19.1047 32.5922C19.1736 32.6152 19.2465 32.6235 19.3188 32.6168C19.475 32.6022 19.6313 32.5959 19.7917 32.5959H21.875C22.7038 32.5959 23.4987 32.9252 24.0847 33.5112C24.6708 34.0973 25 34.8921 25 35.7209V39.8876C25 40.7164 24.6708 41.5113 24.0847 42.0973C23.4987 42.6834 22.7038 43.0126 21.875 43.0126H19.7917C19.6313 43.0126 19.475 43.0126 19.3188 42.9918C19.2465 42.9848 19.1737 42.993 19.1049 43.0159C19.036 43.0388 18.9728 43.0759 18.9192 43.1248C18.8656 43.1737 18.8228 43.2333 18.7937 43.2997C18.7645 43.3662 18.7497 43.438 18.75 43.5105V44.3626C18.7504 44.5772 18.8171 44.7864 18.9409 44.9617C19.0647 45.1369 19.2396 45.2697 19.4417 45.3418L32.6333 50.0543C33.0862 50.2147 33.5805 50.2147 34.0333 50.0543L47.225 45.3418C47.4271 45.2697 47.602 45.1369 47.7258 44.9617C47.8496 44.7864 47.9163 44.5772 47.9167 44.3626V43.5105C47.9163 43.4382 47.9011 43.3667 47.8721 43.3004C47.8431 43.2341 47.8008 43.1745 47.7479 43.1251C47.6942 43.0763 47.6308 43.0393 47.562 43.0163C47.4931 42.9934 47.4202 42.985 47.3479 42.9918C47.1917 43.0043 47.0354 43.0126 46.875 43.0126H44.7917Z" fill="#D73728"/>
<path d="M33.3333 21.1375C36.2098 21.1375 38.5417 18.8056 38.5417 15.9292C38.5417 13.0527 36.2098 10.7208 33.3333 10.7208C30.4568 10.7208 28.125 13.0527 28.125 15.9292C28.125 18.8056 30.4568 21.1375 33.3333 21.1375Z" fill="#94ADBE"/>
<path d="M21.875 40.9292C22.1513 40.9292 22.4162 40.8195 22.6116 40.6241C22.8069 40.4288 22.9167 40.1638 22.9167 39.8875V35.7209C22.9167 35.4446 22.8069 35.1796 22.6116 34.9843C22.4162 34.7889 22.1513 34.6792 21.875 34.6792H19.7917C18.9629 34.6792 18.168 35.0084 17.582 35.5945C16.9959 36.1805 16.6667 36.9754 16.6667 37.8042C16.6667 38.633 16.9959 39.4279 17.582 40.0139C18.168 40.6 18.9629 40.9292 19.7917 40.9292H21.875Z" fill="#94ADBE"/>
<path d="M46.875 34.6792H44.7917C44.5154 34.6792 44.2504 34.7889 44.0551 34.9843C43.8597 35.1796 43.75 35.4446 43.75 35.7209V39.8875C43.75 40.1638 43.8597 40.4288 44.0551 40.6241C44.2504 40.8195 44.5154 40.9292 44.7917 40.9292H46.875C47.7038 40.9292 48.4987 40.6 49.0847 40.0139C49.6708 39.4279 50 38.633 50 37.8042C50 36.9754 49.6708 36.1805 49.0847 35.5945C48.4987 35.0084 47.7038 34.6792 46.875 34.6792Z" fill="#94ADBE"/>
</g>
<defs>
<clipPath id="clip0">
<rect width="50" height="50" fill="white" transform="translate(0 0.5)"/>
</clipPath>
</defs>
</svg>
